<?xml version="1.0" encoding="UTF-8" standalone="no"?>
<svg
   width="512mm"
   height="512mm"
   viewBox="0 0 512 512"
   version="1.1"
   id="svg39"
   sodipodi:docname="logo.svg"
   inkscape:version="1.1.2 (0a00cf5339, 2022-02-04)"
   xmlns:inkscape="http://www.inkscape.org/namespaces/inkscape"
   xmlns:sodipodi="http://sodipodi.sourceforge.net/DTD/sodipodi-0.dtd"
   xmlns="http://www.w3.org/2000/svg"
   xmlns:svg="http://www.w3.org/2000/svg">
  <sodipodi:namedview
     id="namedview41"
     pagecolor="#ffffff"
     bordercolor="#666666"
     borderopacity="1.0"
     inkscape:pageshadow="2"
     inkscape:pageopacity="0.0"
     inkscape:pagecheckerboard="0"
     inkscape:document-units="mm"
     showgrid="false"
     inkscape:zoom="0.13487901"
     inkscape:cx="1464.2753"
     inkscape:cy="1642.2126"
     inkscape:window-width="1320"
     inkscape:window-height="704"
     inkscape:window-x="0"
     inkscape:window-y="0"
     inkscape:window-maximized="1"
     inkscape:current-layer="svg39" />
  <defs
     id="defs9">
    <path
       id="b"
       d="M-4.771 5.784h1943.593v1950.773H-4.771z" />
    <path
       id="c"
       d="M-4.771 5.784h1943.593v1950.773H-4.771z" />
    <linearGradient
       id="a">
      <stop
         style="stop-color:maroon;stop-opacity:1"
         offset="0"
         id="stop4" />
      <stop
         style="stop-color:maroon;stop-opacity:0"
         offset="1"
         id="stop6" />
    </linearGradient>
  </defs>
  <path
     style="display:inline;fill:#6b8e23;fill-opacity:1;stroke:none;stroke-width:.264754;stroke-miterlimit:4;stroke-dasharray:none;stroke-opacity:1"
     d="M-.837-.729h516.743v520.757H-.837z"
     id="path11" />
  <ellipse
     style="display:inline;fill:teal;fill-opacity:1;fill-rule:evenodd;stroke-width:.273873"
     cx="370.177"
     cy="21.038"
     rx="204.106"
     ry="244.461"
     transform="matrix(.75267 .6584 -.78518 .61926 0 0)"
     id="ellipse13" />
  <ellipse
     style="display:inline;fill:#fff;fill-rule:evenodd;stroke:maroon;stroke-width:.249301;stroke-opacity:1"
     cx="272.47"
     cy="251.037"
     rx="224.052"
     ry="184.531"
     id="ellipse15" />
  <text
     xml:space="preserve"
     transform="matrix(.26458 0 0 -.26458 150.274 475.296)"
     style="font-size:1365.33px;line-height:1.25;font-family:Ani;-inkscape-font-specification:Ani;white-space:pre;shape-inside:url(#b);display:inline;fill:#6b8e23;fill-opacity:1"
     id="text19"><tspan
       x="-4.7714844"
       y="1185.3648"
       id="tspan9526">B</tspan></text>
  <text
     xml:space="preserve"
     transform="matrix(.26458 0 0 -.26458 135.575 479.715)"
     style="font-size:1365.33px;line-height:1.25;font-family:Ani;-inkscape-font-specification:Ani;white-space:pre;shape-inside:url(#c);display:inline;fill:teal;fill-opacity:1"
     id="text23"><tspan
       x="-4.7714844"
       y="1185.3648"
       id="tspan9528">B</tspan></text>
  <g
     style="display:inline"
     id="g37">
    <path
       style="fill:#ffffff;stroke:none;stroke-width:0.264583px;stroke-linecap:butt;stroke-linejoin:miter;stroke-opacity:1"
       d="m 200.791,151.246 c -7.38624,5.21394 -10.35984,11.25011 -13.876,19.171 -0.64961,18.15859 8.42881,25.76882 22.785,31.965 l 0.397,45.394 -59.066,111.368 -5.504,10.754 -1.113,10.823 5.39,14.752 16.769,10.301 166.219,-0.014 12.095,-4.397 8.077,-8.98 7.10734,-12.0121 -7.76034,-16.9059 -64.25058,-122.53669 -10.36577,7.28376 69.11835,125.01393 -2.055,15.526 -8.534,7.17 -169.122,1.306 -11.22,-9.448 -2.363,-10.59 3.338,-11.216 61.648,-115.568 0.588,-47.529 -0.207,-8.347 c -13.26389,-0.20889 -21.5934,-12.21693 -19.92012,-23.86719 5.13737,-10.89149 6.67383,-5.98369 12.57412,-14.40281 l 76.161,-0.394 10.86,4.95 c 29.26261,24.17761 5.02296,41.85694 -9.53476,36.27508 -0.96582,43.83723 58.36466,-26.56803 21.38676,-34.25708 l -12.063,-12.665 -13.015,-3.2 c -27.11918,2.3818 -60.70392,-4.29222 -84.544,4.277 z"
       id="path25"
       sodipodi:nodetypes="ccccccccccccccccccccccccccccccccccc" />
    <path
       style="fill:#ffffff;fill-opacity:1;stroke:none;stroke-width:0.264583px;stroke-linecap:butt;stroke-linejoin:miter;stroke-opacity:1"
       d="m 214.65516,284.31327 -0.0922,32.81651 -22.61492,46.33622 4.166,6.13 7.731,1.014 4.31,-5.306 9.543,-18.765 4.61689,33.73438 80.70187,-2.18872 28.90624,-6.28966 v 0 l -7.62,15.229 -147.151,-1.434 -8.577,-7.088 v -5.742 z"
       id="path27"
       inkscape:label="path27"
       sodipodi:nodetypes="cccccccccccccccc" />
    <ellipse
       style="fill:#ffffff;stroke-width:0.330465"
       cx="265.82101"
       cy="276.52499"
       rx="11.093"
       ry="11.169"
       id="ellipse35" />
  </g>
</svg>
