<?xml version="1.0" encoding="UTF-8" standalone="no"?>
<!-- Created with Inkscape (http://www.inkscape.org/) -->

<svg
   width="512"
   height="512"
   viewBox="0 0 512 512"
   version="1.1"
   id="svg5"
   inkscape:version="1.1.1 (3bf5ae0d25, 2021-09-20)"
   sodipodi:docname="favicon.svg"
   inkscape:export-filename="/home/bret/Public/Projects/TechShop/website/img/favicon.png"
   inkscape:export-xdpi="3"
   inkscape:export-ydpi="3"
   inkscape:label="Shop"
   xmlns:inkscape="http://www.inkscape.org/namespaces/inkscape"
   xmlns:sodipodi="http://sodipodi.sourceforge.net/DTD/sodipodi-0.dtd"
   xmlns="http://www.w3.org/2000/svg"
   xmlns:svg="http://www.w3.org/2000/svg">
  <sodipodi:namedview
     id="namedview7"
     pagecolor="#ffffff"
     bordercolor="#666666"
     borderopacity="1.0"
     inkscape:pageshadow="2"
     inkscape:pageopacity="0.0"
     inkscape:pagecheckerboard="0"
     inkscape:document-units="px"
     showgrid="false"
     inkscape:zoom="1.1039267"
     inkscape:cx="276.28647"
     inkscape:cy="340.60233"
     inkscape:window-width="1314"
     inkscape:window-height="679"
     inkscape:window-x="26"
     inkscape:window-y="23"
     inkscape:window-maximized="0"
     inkscape:current-layer="g35851" />
  <defs
     id="defs2">
    <rect
       x="111.64268"
       y="209.58536"
       width="8.3105142"
       height="60.150813"
       id="rect21401" />
    <rect
       x="115.99149"
       y="192.80426"
       width="309.81877"
       height="258.87098"
       id="rect3882" />
    <filter
       inkscape:collect="always"
       style="color-interpolation-filters:sRGB"
       id="filter35817"
       x="-0.062484828"
       y="-0.062484828"
       width="1.1249697"
       height="1.1249697">
      <feGaussianBlur
         inkscape:collect="always"
         stdDeviation="11.663835"
         id="feGaussianBlur35819" />
    </filter>
    <filter
       inkscape:collect="always"
       style="color-interpolation-filters:sRGB"
       id="filter36293"
       x="-0.0033011952"
       y="-0.0033011952"
       width="1.0066024"
       height="1.0066024">
      <feGaussianBlur
         inkscape:collect="always"
         stdDeviation="0.70425501"
         id="feGaussianBlur36295" />
    </filter>
  </defs>
  <g
     inkscape:groupmode="layer"
     id="layer2"
     inkscape:label="Bottom"
     style="display:inline">
    <circle
       id="path75"
       cx="256"
       cy="256"
       style="fill:#2b3c59;fill-opacity:1;stroke-width:0.984985"
       inkscape:export-filename="/home/bret/Public/Projects/TechShop/website/img/path75.png"
       inkscape:export-xdpi="96"
       inkscape:export-ydpi="96"
       r="256" />
  </g>
  <g
     inkscape:groupmode="layer"
     id="g35851"
     inkscape:label="Bottom copy"
     style="display:inline">
    <circle
       id="circle35849"
       cx="256"
       cy="256"
       style="fill:#000000;fill-opacity:1;stroke-width:0.984985;opacity:0.27339958;filter:url(#filter36293)"
       inkscape:export-filename="/home/bret/Public/Projects/TechShop/website/img/path75.png"
       inkscape:export-xdpi="96"
       inkscape:export-ydpi="96"
       r="256" />
  </g>
  <g
     inkscape:label="Layer 1"
     inkscape:groupmode="layer"
     id="layer1"
     style="display:inline">
    <circle
       id="path75-3"
       cx="256"
       cy="256"
       style="fill:#f7e197;fill-opacity:1;stroke-width:1.2226"
       inkscape:export-filename="/home/bret/Public/Projects/TechShop/website/img/path75.png"
       inkscape:export-xdpi="96"
       inkscape:export-ydpi="96"
       r="240" />
  </g>
  <g
     inkscape:groupmode="layer"
     id="layer3"
     inkscape:label="Top"
     style="display:inline">
    <circle
       id="path75-6"
       cx="256"
       cy="256"
       style="display:inline;opacity:1;fill:#2b3c59;fill-opacity:1;stroke-width:1.141"
       inkscape:export-filename="/home/bret/Public/Projects/TechShop/website/img/path75.png"
       inkscape:export-xdpi="96"
       inkscape:export-ydpi="96"
       r="224" />
  </g>
  <g
     inkscape:groupmode="layer"
     id="g35637"
     inkscape:label="Effects"
     style="display:inline">
    <circle
       id="circle35633"
       cx="256"
       cy="256"
       style="display:inline;opacity:0.296218;fill:#ffffff;fill-opacity:1;stroke-width:1.141;filter:url(#filter35817)"
       inkscape:export-filename="/home/bret/Public/Projects/TechShop/website/img/path75.png"
       inkscape:export-xdpi="96"
       inkscape:export-ydpi="96"
       r="224" />
  </g>
  <g
     id="layer4"
     inkscape:label="Text"
     style="display:inline">
    <rect
       style="display:inline;fill:#f7e197;fill-opacity:1;stroke-width:1.13753"
       id="rect68482-5"
       width="174.1468"
       height="6.1117911"
       x="265.1947"
       y="308.32797"
       inkscape:export-filename="/home/bret/Public/Projects/TechShop/website/img/path75.png"
       inkscape:export-xdpi="96"
       inkscape:export-ydpi="96" />
    <rect
       style="display:inline;fill:#f7e197;fill-opacity:1;stroke-width:1.04527"
       id="rect68482"
       width="147.21973"
       height="6.1045856"
       x="114.25452"
       y="219.33688"
       inkscape:export-filename="/home/bret/Public/Projects/TechShop/website/img/path75.png"
       inkscape:export-xdpi="96"
       inkscape:export-ydpi="96" />
    <text
       xml:space="preserve"
       id="text3880"
       style="font-style:normal;font-variant:normal;font-weight:bold;font-stretch:normal;font-size:42.2559px;line-height:1.25;font-family:sans-serif;-inkscape-font-specification:'sans-serif, Bold';font-variant-ligatures:normal;font-variant-caps:normal;font-variant-numeric:normal;font-variant-east-asian:normal;text-align:start;white-space:pre;shape-inside:url(#rect3882);display:inline;fill:#f7e197;fill-opacity:1"
       x="-95.78125"
       y="0"
       transform="matrix(1.5145801,0,0,1.5145801,-73.132814,-137.36624)"
       inkscape:export-filename="/home/bret/Public/Projects/TechShop/website/img/path75.png"
       inkscape:export-xdpi="96"
       inkscape:export-ydpi="96"><tspan
         x="115.99219"
         y="230.19126"
         id="tspan38381">Tech
</tspan><tspan
         x="115.99219"
         y="283.01114"
         id="tspan38383">       Shop</tspan></text>
    <g
       transform="matrix(0.01259812,0,0,-0.01259812,119.27924,273.56906)"
       id="g20"
       style="display:inline;fill:#f7e197;fill-opacity:1">
      <path
         d="m 257,1482.6 5.7,-991.5 67,-122.5 C 400.5,238.4 528.8,119.8 645.5,77.7 l 67,-24.9 v -474.7 -474.7 h 153.1 153.1 v 474.7 474.7 l 65.1,23 c 36.4,13.4 105.3,53.6 153.1,91.9 l 90,67 59.3,-49.8 c 239.3,-202.9 534,-204.8 782.8,-7.7 l 74.6,59.3 80.4,-68.9 c 220.1,-189.5 537.8,-189.5 758,0 l 80.4,68.9 80.4,-68.9 c 220.1,-189.5 537.8,-189.5 758,0 l 80.4,68.9 80.4,-68.9 c 99.5,-86.1 256.5,-145.5 379,-145.5 122.5,0 279.5,59.3 379,145.5 l 80.4,68.9 80.4,-68.9 c 220.1,-189.5 537.9,-189.5 758,0 l 80.4,68.9 80.4,-68.9 c 99.5,-86.1 256.5,-145.5 379,-145.5 122.5,0 279.4,59.3 379,145.5 l 80.4,68.9 80.4,-68.9 c 99.5,-86.1 256.5,-145.5 379,-145.5 122.5,0 279.4,59.3 379,145.5 l 80.4,68.9 80.4,-68.9 c 220.1,-189.5 537.9,-189.5 758,0 l 80.4,68.9 59.3,-51.7 C 8769,158 8837.9,114 8887.6,87.2 l 93.8,-45.9 V -1958.9 -3959.1 H 8675 8368.7 v 1531.2 1531.2 H 7296.9 6225 V -2427.9 -3959.1 H 4540.6 2856.2 v -153.1 -153.1 H 6071.8 9287.4 V -2106.2 50.9 l 84.2,34.4 c 130.1,53.6 231.6,153.1 302.4,296.7 l 63.2,128.2 5.7,980 5.7,981.9 H 9287.3 8827.9 V 2319 2165.9 h 306.3 306.3 v -807.7 c 0,-733.1 -3.8,-815.4 -34.5,-874.7 C 9350.5,372.5 9285.4,338 9134.2,338 8983,338 8917.9,372.4 8862.4,483.5 8831.8,539 8827.9,606 8827.9,975.4 v 424.9 H 8675 8521.9 V 984.9 c 0,-371.3 -5.7,-426.8 -38.3,-499.6 -93.8,-206.7 -442.1,-206.7 -535.9,0 -32.5,72.7 -38.3,128.2 -38.3,499.6 v 415.4 H 7756.3 7603.2 V 984.9 c 0,-371.3 -5.7,-426.8 -38.3,-499.6 -93.8,-206.7 -442.1,-206.7 -535.9,0 -32.5,72.7 -38.3,128.2 -38.3,499.6 v 415.4 H 6837.6 6684.5 V 984.9 c 0,-371.3 -5.7,-426.8 -38.3,-499.6 -28.7,-63.2 -55.5,-90 -118.7,-118.7 -168.4,-76.6 -352.2,-23 -417.3,118.7 -32.5,72.7 -38.3,128.2 -38.3,499.6 v 415.4 H 5918.8 5765.7 V 984.9 c 0,-371.3 -5.7,-426.8 -38.3,-499.6 -93.8,-206.7 -442.1,-206.7 -535.9,0 -32.5,72.7 -38.3,128.2 -38.3,499.6 v 415.4 H 5000 4846.9 V 984.9 c 0,-371.3 -5.7,-426.8 -38.3,-499.6 -93.8,-206.7 -442.1,-206.7 -535.9,0 -32.5,72.7 -38.3,128.2 -38.3,499.6 v 415.4 H 4081.3 3928.2 V 984.9 c 0,-371.3 -5.7,-426.8 -38.3,-499.6 -93.8,-206.7 -442.1,-206.7 -535.9,0 -32.5,72.7 -38.3,128.2 -38.3,499.6 v 415.4 H 3162.6 3009.5 V 984.9 c 0,-371.3 -5.7,-426.8 -38.3,-499.6 -93.8,-206.7 -442.1,-206.7 -535.9,0 -32.5,72.7 -38.3,128.2 -38.3,499.6 v 415.4 h -153.1 -153.1 v -425 c 0,-468.9 -9.6,-516.8 -120.6,-597.2 -78.5,-57.4 -292.9,-57.4 -371.3,0 -111,80.4 -120.6,128.2 -120.6,597.2 v 424.9 H 1325 1171.9 V 975.3 c 0,-468.9 -9.6,-516.8 -120.6,-597.2 -78.5,-57.4 -292.9,-57.4 -371.3,0 -120.6,88.1 -120.6,88.1 -120.6,980 v 807.7 h 306.3 306.2 V 2319 2472.1 H 712.5 251.2 Z M 8062.5,-2581 v -1378.1 h -765.6 -765.6 v 612.5 612.5 h 153.1 153.1 v 153.1 153.1 h -153.1 -153.1 v 612.5 612.5 h 765.6 765.6 z"
         id="path14"
         style="fill:#f7e197;fill-opacity:1" />
      <path
         d="M 1409.2,-921.5 C 1361.3,-948.3 1263.7,-1067 1020.6,-1392.4 523,-2060.4 203.4,-2644.1 124.9,-3025 0.5,-3635.6 431.1,-4146.7 1143.2,-4236.6 c 195.2,-24.9 181.8,-11.5 181.8,-181.8 v -153.1 H 712.5 100 v -105.3 -105.3 h 4900 4900 v 105.3 105.3 H 5765.6 1631.2 v 153.1 c 0,170.4 -13.4,157 181.8,181.8 438.3,55.5 788.6,273.7 937.9,587.6 99.5,206.7 124.4,405.8 78.5,624 -86.1,423 -419.2,1006.8 -1039.3,1824.1 -223.9,294.7 -281.4,336.8 -380.9,279.4 z m 235.5,-581.9 c 359.8,-480.4 597.2,-851.8 750.3,-1173.3 126.3,-266.1 162.7,-409.6 149.3,-597.2 -26.8,-394.3 -287.1,-616.3 -792.4,-675.7 l -120.6,-13.4 v 537.9 537.8 H 1478.2 1325 v -535.9 -535.9 h -42.1 c -88,1.9 -335,55.5 -442.1,95.7 -260.4,97.6 -409.7,302.4 -428.8,585.7 -7.7,107.2 -1.9,187.6 21.1,275.6 61.2,241.2 319.6,719.7 610.6,1129.3 176.1,248.8 421.1,574.2 434.5,574.2 5.7,0 80.3,-91.8 166.5,-204.8 z"
         id="path16"
         style="display:inline;fill:#f7e197;fill-opacity:1" />
      <path
         d="m 2243.7,-1049.7 v -153.1 h 612.5 612.5 v -918.8 -918.7 h -153.1 -153.1 v -153.1 -153.1 h 1071.9 1071.9 v 1225 1225 H 3775 2243.7 Z M 5000,-2121.6 v -918.7 H 4387.5 3775 v 918.7 918.8 h 612.5 612.5 z"
         id="path18"
         style="display:inline;fill:#f7e197;fill-opacity:1" />
    </g>
  </g>
</svg>
